<svg width="1093" height="87" viewBox="0 0 1093 87" fill="none" xmlns="http://www.w3.org/2000/svg">
<circle cx="698" cy="20" r="20" fill="#565656"/>
<path d="M697.468 28.264C696.148 28.264 695.026 27.9487 694.102 27.318C693.178 26.6873 692.496 25.822 692.056 24.722L694.19 23.864C694.835 25.3307 695.928 26.064 697.468 26.064C698.348 26.064 699.067 25.8587 699.624 25.448C700.196 25.0227 700.482 24.392 700.482 23.556C700.482 22.8373 700.233 22.2507 699.734 21.796C699.25 21.3267 698.517 21.092 697.534 21.092H696.346V18.892H697.534C698.253 18.892 698.825 18.7013 699.25 18.32C699.69 17.924 699.91 17.418 699.91 16.802C699.91 16.0833 699.697 15.526 699.272 15.13C698.847 14.734 698.245 14.536 697.468 14.536C696.236 14.536 695.327 15.1153 694.74 16.274L692.606 15.46C692.973 14.492 693.581 13.7293 694.432 13.172C695.283 12.6147 696.317 12.336 697.534 12.336C698.913 12.336 700.049 12.754 700.944 13.59C701.839 14.4113 702.286 15.4087 702.286 16.582C702.286 18.1367 701.626 19.2513 700.306 19.926C702.007 20.6007 702.858 21.7813 702.858 23.468C702.858 24.9787 702.359 26.1593 701.362 27.01C700.365 27.846 699.067 28.264 697.468 28.264Z" fill="white"/>
<circle cx="1019" cy="20" r="20" fill="#E5E5E5"/>
<path d="M1020.6 28V24.502H1012.31V23.028L1020.18 12.6H1022.89V22.39H1024.89V24.502H1022.89V28H1020.6ZM1020.6 22.39V15.372L1015.34 22.39H1020.6Z" fill="white"/>
<path d="M1.8 78V64H7.7C9.28667 64 10.4333 64.3933 11.14 65.18C11.86 65.9667 12.22 66.9533 12.22 68.14C12.22 69.0333 11.96 69.8533 11.44 70.6C10.9333 71.3333 10.18 71.8333 9.18 72.1L12.06 78H9.68L6.92 72.28H3.88V78H1.8ZM3.88 70.28H7.74C8.54 70.28 9.12667 70.08 9.5 69.68C9.87333 69.2667 10.06 68.7533 10.06 68.14C10.06 67.5533 9.88 67.0533 9.52 66.64C9.17333 66.2133 8.58 66 7.74 66H3.88V70.28ZM18.6478 78.24C17.2211 78.24 16.0878 77.7667 15.2478 76.82C14.4211 75.86 14.0078 74.5467 14.0078 72.88C14.0078 71.2133 14.4278 69.9067 15.2678 68.96C16.1078 68.0133 17.2345 67.54 18.6478 67.54C19.9278 67.54 20.9811 67.9467 21.8078 68.76C22.6345 69.5733 23.0478 70.76 23.0478 72.32C23.0478 72.8933 23.0211 73.34 22.9678 73.66H16.0878C16.1011 74.4733 16.3611 75.1333 16.8678 75.64C17.3878 76.1467 17.9878 76.4 18.6678 76.4C19.5478 76.4 20.2545 76.0533 20.7878 75.36L22.1478 76.76C21.3211 77.7467 20.1545 78.24 18.6478 78.24ZM16.0878 71.98H20.9678C20.9545 71.1 20.7211 70.4467 20.2678 70.02C19.8145 69.5933 19.2745 69.38 18.6478 69.38C17.9411 69.38 17.3478 69.5933 16.8678 70.02C16.4011 70.4333 16.1411 71.0867 16.0878 71.98ZM28.8653 82L27.8253 80.4C29.2386 80.32 30.2186 80.08 30.7653 79.68C31.3253 79.2933 31.6053 78.76 31.6053 78.08V77.18C31.032 77.8867 30.212 78.24 29.1453 78.24C27.9186 78.24 26.912 77.78 26.1253 76.86C25.3386 75.9267 24.9453 74.6 24.9453 72.88C24.9453 71.2267 25.332 69.9267 26.1053 68.98C26.892 68.02 27.9186 67.54 29.1853 67.54C30.1853 67.54 30.992 67.86 31.6053 68.5V67.78H33.6853V77.34C33.6853 78.9133 33.292 80.0533 32.5053 80.76C31.7186 81.4667 30.5053 81.88 28.8653 82ZM29.5253 76.28C30.432 76.28 31.1253 75.88 31.6053 75.08V70.66C31.392 70.3133 31.092 70.0333 30.7053 69.82C30.332 69.6067 29.9386 69.5 29.5253 69.5C28.712 69.5 28.092 69.7933 27.6653 70.38C27.2386 70.9533 27.0253 71.7867 27.0253 72.88C27.0253 73.92 27.2453 74.7467 27.6853 75.36C28.1386 75.9733 28.752 76.28 29.5253 76.28ZM38.6158 65.82C38.3758 66.06 38.0824 66.18 37.7358 66.18C37.3891 66.18 37.0891 66.06 36.8358 65.82C36.5958 65.5667 36.4758 65.2667 36.4758 64.92C36.4758 64.5733 36.5958 64.28 36.8358 64.04C37.0891 63.7867 37.3891 63.66 37.7358 63.66C38.0824 63.66 38.3758 63.7867 38.6158 64.04C38.8691 64.28 38.9958 64.5733 38.9958 64.92C38.9958 65.2667 38.8691 65.5667 38.6158 65.82ZM36.6958 78V67.78H38.7758V78H36.6958ZM44.953 78.24C44.153 78.24 43.3996 78.0933 42.693 77.8C41.9863 77.4933 41.453 77.0867 41.093 76.58L42.573 75.32C43.3063 76.0133 44.0863 76.36 44.913 76.36C46.113 76.36 46.713 75.9933 46.713 75.26C46.713 75.0067 46.5996 74.7733 46.373 74.56C46.1463 74.3467 45.9196 74.1933 45.693 74.1C45.4663 73.9933 45.0996 73.84 44.593 73.64C43.473 73.2667 42.6463 72.8267 42.113 72.32C41.593 71.8133 41.333 71.16 41.333 70.36C41.333 69.48 41.6663 68.7933 42.333 68.3C43.013 67.7933 43.8663 67.54 44.893 67.54C46.4263 67.54 47.6196 68.0533 48.473 69.08L46.973 70.28C46.4263 69.7067 45.733 69.42 44.893 69.42C44.453 69.42 44.0996 69.5067 43.833 69.68C43.5796 69.84 43.453 70.0667 43.453 70.36C43.453 70.6667 43.6063 70.92 43.913 71.12C44.233 71.3067 44.7396 71.5333 45.433 71.8C46.593 72.1867 47.4396 72.64 47.973 73.16C48.5196 73.68 48.793 74.38 48.793 75.26C48.793 76.22 48.4463 76.96 47.753 77.48C47.073 77.9867 46.1396 78.24 44.953 78.24ZM54.2452 78.24C52.7252 78.24 51.9652 77.3933 51.9652 75.7V69.58H50.3852V67.78H51.9652V64.56L54.0452 63.56V67.78H56.4652V69.58H54.0452V75.16C54.0452 75.9333 54.3785 76.32 55.0452 76.32C55.5385 76.32 56.0452 76.16 56.5652 75.84L56.3052 77.78C55.6918 78.0867 55.0052 78.24 54.2452 78.24ZM58.8633 78V67.78H60.9433V69.02C61.3966 68.0333 62.1566 67.54 63.2233 67.54C63.8899 67.54 64.4633 67.7467 64.9433 68.16L64.6433 70.08C64.1499 69.7467 63.6099 69.58 63.0233 69.58C62.4633 69.58 61.9766 69.7933 61.5633 70.22C61.1499 70.6333 60.9433 71.3133 60.9433 72.26V78H58.8633ZM72.2619 78V77.12C71.5419 77.8667 70.6085 78.24 69.4619 78.24C68.3819 78.24 67.5019 77.9467 66.8219 77.36C66.1552 76.76 65.8219 75.9133 65.8219 74.82C65.8219 73.7133 66.2019 72.8733 66.9619 72.3C67.7219 71.7267 68.6485 71.44 69.7419 71.44C70.7419 71.44 71.5819 71.64 72.2619 72.04V71.48C72.2619 70.72 72.0885 70.18 71.7419 69.86C71.3952 69.54 70.8419 69.38 70.0819 69.38C68.9619 69.38 67.9885 69.6867 67.1619 70.3L66.5419 68.6C67.5685 67.8933 68.8419 67.54 70.3619 67.54C70.8685 67.54 71.3219 67.5867 71.7219 67.68C72.1219 67.76 72.5285 67.9267 72.9419 68.18C73.3552 68.42 73.6752 68.8133 73.9019 69.36C74.1419 69.9067 74.2619 70.58 74.2619 71.38V78H72.2619ZM69.8419 76.4C70.8019 76.4 71.6085 76.0333 72.2619 75.3V73.74C71.6352 73.4067 70.9085 73.24 70.0819 73.24C69.4152 73.24 68.8685 73.3733 68.4419 73.64C68.0285 73.8933 67.8219 74.2867 67.8219 74.82C67.8219 75.3133 67.9952 75.7 68.3419 75.98C68.6885 76.26 69.1885 76.4 69.8419 76.4ZM80.0264 78.24C78.5064 78.24 77.7464 77.3933 77.7464 75.7V69.58H76.1664V67.78H77.7464V64.56L79.8264 63.56V67.78H82.2464V69.58H79.8264V75.16C79.8264 75.9333 80.1597 76.32 80.8264 76.32C81.3197 76.32 81.8264 76.16 82.3464 75.84L82.0864 77.78C81.4731 78.0867 80.7864 78.24 80.0264 78.24ZM86.5845 65.82C86.3445 66.06 86.0512 66.18 85.7045 66.18C85.3579 66.18 85.0579 66.06 84.8045 65.82C84.5645 65.5667 84.4445 65.2667 84.4445 64.92C84.4445 64.5733 84.5645 64.28 84.8045 64.04C85.0579 63.7867 85.3579 63.66 85.7045 63.66C86.0512 63.66 86.3445 63.7867 86.5845 64.04C86.8379 64.28 86.9645 64.5733 86.9645 64.92C86.9645 65.2667 86.8379 65.5667 86.5845 65.82ZM84.6645 78V67.78H86.7445V78H84.6645ZM97.3417 76.82C96.5017 77.7667 95.3617 78.24 93.9217 78.24C92.4817 78.24 91.3417 77.7667 90.5017 76.82C89.6751 75.8733 89.2617 74.5667 89.2617 72.9C89.2617 71.2333 89.6751 69.9267 90.5017 68.98C91.3417 68.02 92.4817 67.54 93.9217 67.54C95.3617 67.54 96.5017 68.02 97.3417 68.98C98.1817 69.9267 98.6017 71.2333 98.6017 72.9C98.6017 74.5667 98.1817 75.8733 97.3417 76.82ZM93.9217 76.28C94.7217 76.28 95.3551 75.98 95.8217 75.38C96.2884 74.78 96.5217 73.9533 96.5217 72.9C96.5217 71.8467 96.2884 71.02 95.8217 70.42C95.3551 69.8067 94.7217 69.5 93.9217 69.5C93.1351 69.5 92.5084 69.8067 92.0417 70.42C91.5751 71.02 91.3417 71.8467 91.3417 72.9C91.3417 73.94 91.5751 74.7667 92.0417 75.38C92.5084 75.98 93.1351 76.28 93.9217 76.28ZM107.429 78V71.9C107.429 71.0867 107.243 70.4867 106.869 70.1C106.496 69.7 106.003 69.5 105.389 69.5C103.923 69.5 103.189 70.2867 103.189 71.86V78H101.109V67.78H103.189V68.76C103.829 67.9467 104.709 67.54 105.829 67.54C108.283 67.54 109.509 68.9933 109.509 71.9V78H107.429Z" fill="#565656"/>
<path d="M298.76 77.82C298.053 78.1 297.267 78.24 296.4 78.24C295.533 78.24 294.747 78.1 294.04 77.82C293.333 77.54 292.753 77.1667 292.3 76.7C291.847 76.2333 291.467 75.68 291.16 75.04C290.853 74.4 290.633 73.7467 290.5 73.08C290.367 72.4133 290.3 71.72 290.3 71C290.3 70.28 290.367 69.5867 290.5 68.92C290.633 68.2533 290.853 67.6 291.16 66.96C291.467 66.32 291.847 65.7667 292.3 65.3C292.753 64.8333 293.333 64.46 294.04 64.18C294.747 63.9 295.533 63.76 296.4 63.76C297.267 63.76 298.053 63.9 298.76 64.18C299.467 64.46 300.047 64.8333 300.5 65.3C300.953 65.7667 301.333 66.32 301.64 66.96C301.947 67.6 302.167 68.2533 302.3 68.92C302.433 69.5867 302.5 70.28 302.5 71C302.5 71.72 302.433 72.4133 302.3 73.08C302.167 73.7467 301.947 74.4 301.64 75.04C301.333 75.68 300.953 76.2333 300.5 76.7C300.047 77.1667 299.467 77.54 298.76 77.82ZM294.56 75.78C295.093 76.0867 295.707 76.24 296.4 76.24C297.093 76.24 297.707 76.08 298.24 75.76C298.773 75.4267 299.187 74.9933 299.48 74.46C299.773 73.9267 299.987 73.3733 300.12 72.8C300.267 72.2133 300.34 71.6133 300.34 71C300.34 70.36 300.267 69.7467 300.12 69.16C299.987 68.56 299.773 68 299.48 67.48C299.187 66.96 298.773 66.5467 298.24 66.24C297.707 65.92 297.093 65.76 296.4 65.76C295.707 65.76 295.093 65.9267 294.56 66.26C294.027 66.58 293.613 67.0067 293.32 67.54C293.027 68.0733 292.807 68.6333 292.66 69.22C292.527 69.7933 292.46 70.3867 292.46 71C292.46 71.64 292.527 72.26 292.66 72.86C292.807 73.4467 293.027 74 293.32 74.52C293.613 75.04 294.027 75.46 294.56 75.78ZM305.305 78V67.78H307.385V69.02C307.838 68.0333 308.598 67.54 309.665 67.54C310.331 67.54 310.905 67.7467 311.385 68.16L311.085 70.08C310.591 69.7467 310.051 69.58 309.465 69.58C308.905 69.58 308.418 69.7933 308.005 70.22C307.591 70.6333 307.385 71.3133 307.385 72.26V78H305.305ZM316.674 82L315.634 80.4C317.047 80.32 318.027 80.08 318.574 79.68C319.134 79.2933 319.414 78.76 319.414 78.08V77.18C318.841 77.8867 318.021 78.24 316.954 78.24C315.727 78.24 314.721 77.78 313.934 76.86C313.147 75.9267 312.754 74.6 312.754 72.88C312.754 71.2267 313.141 69.9267 313.914 68.98C314.701 68.02 315.727 67.54 316.994 67.54C317.994 67.54 318.801 67.86 319.414 68.5V67.78H321.494V77.34C321.494 78.9133 321.101 80.0533 320.314 80.76C319.527 81.4667 318.314 81.88 316.674 82ZM317.334 76.28C318.241 76.28 318.934 75.88 319.414 75.08V70.66C319.201 70.3133 318.901 70.0333 318.514 69.82C318.141 69.6067 317.747 69.5 317.334 69.5C316.521 69.5 315.901 69.7933 315.474 70.38C315.047 70.9533 314.834 71.7867 314.834 72.88C314.834 73.92 315.054 74.7467 315.494 75.36C315.947 75.9733 316.561 76.28 317.334 76.28ZM330.324 78V77.12C329.604 77.8667 328.671 78.24 327.524 78.24C326.444 78.24 325.564 77.9467 324.884 77.36C324.218 76.76 323.884 75.9133 323.884 74.82C323.884 73.7133 324.264 72.8733 325.024 72.3C325.784 71.7267 326.711 71.44 327.804 71.44C328.804 71.44 329.644 71.64 330.324 72.04V71.48C330.324 70.72 330.151 70.18 329.804 69.86C329.458 69.54 328.904 69.38 328.144 69.38C327.024 69.38 326.051 69.6867 325.224 70.3L324.604 68.6C325.631 67.8933 326.904 67.54 328.424 67.54C328.931 67.54 329.384 67.5867 329.784 67.68C330.184 67.76 330.591 67.9267 331.004 68.18C331.418 68.42 331.738 68.8133 331.964 69.36C332.204 69.9067 332.324 70.58 332.324 71.38V78H330.324ZM327.904 76.4C328.864 76.4 329.671 76.0333 330.324 75.3V73.74C329.698 73.4067 328.971 73.24 328.144 73.24C327.478 73.24 326.931 73.3733 326.504 73.64C326.091 73.8933 325.884 74.2867 325.884 74.82C325.884 75.3133 326.058 75.7 326.404 75.98C326.751 76.26 327.251 76.4 327.904 76.4ZM341.449 78V71.9C341.449 71.0867 341.262 70.4867 340.889 70.1C340.516 69.7 340.022 69.5 339.409 69.5C337.942 69.5 337.209 70.2867 337.209 71.86V78H335.129V67.78H337.209V68.76C337.849 67.9467 338.729 67.54 339.849 67.54C342.302 67.54 343.529 68.9933 343.529 71.9V78H341.449ZM348.378 65.82C348.138 66.06 347.844 66.18 347.498 66.18C347.151 66.18 346.851 66.06 346.598 65.82C346.358 65.5667 346.238 65.2667 346.238 64.92C346.238 64.5733 346.358 64.28 346.598 64.04C346.851 63.7867 347.151 63.66 347.498 63.66C347.844 63.66 348.138 63.7867 348.378 64.04C348.631 64.28 348.758 64.5733 348.758 64.92C348.758 65.2667 348.631 65.5667 348.378 65.82ZM346.458 78V67.78H348.538V78H346.458ZM351.155 78V76.3L356.575 69.62H351.555V67.78H359.075V69.42L353.655 76.16H359.055V78H351.155ZM367.61 78V77.12C366.89 77.8667 365.956 78.24 364.81 78.24C363.73 78.24 362.85 77.9467 362.17 77.36C361.503 76.76 361.17 75.9133 361.17 74.82C361.17 73.7133 361.55 72.8733 362.31 72.3C363.07 71.7267 363.996 71.44 365.09 71.44C366.09 71.44 366.93 71.64 367.61 72.04V71.48C367.61 70.72 367.436 70.18 367.09 69.86C366.743 69.54 366.19 69.38 365.43 69.38C364.31 69.38 363.336 69.6867 362.51 70.3L361.89 68.6C362.916 67.8933 364.19 67.54 365.71 67.54C366.216 67.54 366.67 67.5867 367.07 67.68C367.47 67.76 367.876 67.9267 368.29 68.18C368.703 68.42 369.023 68.8133 369.25 69.36C369.49 69.9067 369.61 70.58 369.61 71.38V78H367.61ZM365.19 76.4C366.15 76.4 366.956 76.0333 367.61 75.3V73.74C366.983 73.4067 366.256 73.24 365.43 73.24C364.763 73.24 364.216 73.3733 363.79 73.64C363.376 73.8933 363.17 74.2867 363.17 74.82C363.17 75.3133 363.343 75.7 363.69 75.98C364.036 76.26 364.536 76.4 365.19 76.4ZM375.374 78.24C373.854 78.24 373.094 77.3933 373.094 75.7V69.58H371.514V67.78H373.094V64.56L375.174 63.56V67.78H377.594V69.58H375.174V75.16C375.174 75.9333 375.507 76.32 376.174 76.32C376.667 76.32 377.174 76.16 377.694 75.84L377.434 77.78C376.821 78.0867 376.134 78.24 375.374 78.24ZM381.932 65.82C381.692 66.06 381.399 66.18 381.052 66.18C380.706 66.18 380.406 66.06 380.152 65.82C379.912 65.5667 379.792 65.2667 379.792 64.92C379.792 64.5733 379.912 64.28 380.152 64.04C380.406 63.7867 380.706 63.66 381.052 63.66C381.399 63.66 381.692 63.7867 381.932 64.04C382.186 64.28 382.312 64.5733 382.312 64.92C382.312 65.2667 382.186 65.5667 381.932 65.82ZM380.012 78V67.78H382.092V78H380.012ZM392.689 76.82C391.849 77.7667 390.709 78.24 389.269 78.24C387.829 78.24 386.689 77.7667 385.849 76.82C385.023 75.8733 384.609 74.5667 384.609 72.9C384.609 71.2333 385.023 69.9267 385.849 68.98C386.689 68.02 387.829 67.54 389.269 67.54C390.709 67.54 391.849 68.02 392.689 68.98C393.529 69.9267 393.949 71.2333 393.949 72.9C393.949 74.5667 393.529 75.8733 392.689 76.82ZM389.269 76.28C390.069 76.28 390.703 75.98 391.169 75.38C391.636 74.78 391.869 73.9533 391.869 72.9C391.869 71.8467 391.636 71.02 391.169 70.42C390.703 69.8067 390.069 69.5 389.269 69.5C388.483 69.5 387.856 69.8067 387.389 70.42C386.923 71.02 386.689 71.8467 386.689 72.9C386.689 73.94 386.923 74.7667 387.389 75.38C387.856 75.98 388.483 76.28 389.269 76.28ZM402.777 78V71.9C402.777 71.0867 402.59 70.4867 402.217 70.1C401.844 69.7 401.35 69.5 400.737 69.5C399.27 69.5 398.537 70.2867 398.537 71.86V78H396.457V67.78H398.537V68.76C399.177 67.9467 400.057 67.54 401.177 67.54C403.63 67.54 404.857 68.9933 404.857 71.9V78H402.777ZM417.17 78.24C415.93 78.24 414.857 77.94 413.95 77.34C413.044 76.7267 412.417 75.8933 412.07 74.84L414.03 74.12C414.324 74.7733 414.75 75.2933 415.31 75.68C415.87 76.0533 416.517 76.24 417.25 76.24C418.024 76.24 418.637 76.0533 419.09 75.68C419.557 75.3067 419.79 74.7733 419.79 74.08C419.79 73.7867 419.724 73.52 419.59 73.28C419.47 73.0267 419.33 72.82 419.17 72.66C419.01 72.5 418.764 72.34 418.43 72.18C418.097 72.0067 417.817 71.88 417.59 71.8C417.377 71.7067 417.057 71.5867 416.63 71.44C416.097 71.2533 415.697 71.1067 415.43 71C415.164 70.8933 414.81 70.72 414.37 70.48C413.944 70.2267 413.617 69.98 413.39 69.74C413.177 69.4867 412.984 69.16 412.81 68.76C412.637 68.36 412.55 67.9133 412.55 67.42C412.55 66.3933 412.95 65.5267 413.75 64.82C414.55 64.1133 415.637 63.76 417.01 63.76C418.157 63.76 419.097 64.0133 419.83 64.52C420.577 65.0267 421.077 65.7 421.33 66.54L419.41 67.18C419.224 66.7533 418.91 66.4133 418.47 66.16C418.044 65.8933 417.504 65.76 416.85 65.76C416.184 65.76 415.657 65.9067 415.27 66.2C414.897 66.4933 414.71 66.9067 414.71 67.44C414.71 67.8 414.857 68.12 415.15 68.4C415.444 68.68 415.75 68.8867 416.07 69.02C416.39 69.1533 416.877 69.3333 417.53 69.56C417.93 69.7067 418.224 69.82 418.41 69.9C418.61 69.9667 418.897 70.0867 419.27 70.26C419.644 70.4333 419.93 70.5933 420.13 70.74C420.33 70.8733 420.564 71.06 420.83 71.3C421.097 71.54 421.297 71.7867 421.43 72.04C421.577 72.28 421.697 72.58 421.79 72.94C421.897 73.2867 421.95 73.66 421.95 74.06C421.95 75.3667 421.504 76.3933 420.61 77.14C419.717 77.8733 418.57 78.24 417.17 78.24ZM428.781 78.24C427.354 78.24 426.221 77.7667 425.381 76.82C424.554 75.86 424.141 74.5467 424.141 72.88C424.141 71.2133 424.561 69.9067 425.401 68.96C426.241 68.0133 427.367 67.54 428.781 67.54C430.061 67.54 431.114 67.9467 431.941 68.76C432.767 69.5733 433.181 70.76 433.181 72.32C433.181 72.8933 433.154 73.34 433.101 73.66H426.221C426.234 74.4733 426.494 75.1333 427.001 75.64C427.521 76.1467 428.121 76.4 428.801 76.4C429.681 76.4 430.387 76.0533 430.921 75.36L432.281 76.76C431.454 77.7467 430.287 78.24 428.781 78.24ZM426.221 71.98H431.101C431.087 71.1 430.854 70.4467 430.401 70.02C429.947 69.5933 429.407 69.38 428.781 69.38C428.074 69.38 427.481 69.5933 427.001 70.02C426.534 70.4333 426.274 71.0867 426.221 71.98ZM438.343 78.24C436.823 78.24 436.063 77.3933 436.063 75.7V69.58H434.483V67.78H436.063V64.56L438.143 63.56V67.78H440.563V69.58H438.143V75.16C438.143 75.9333 438.476 76.32 439.143 76.32C439.636 76.32 440.143 76.16 440.663 75.84L440.403 77.78C439.789 78.0867 439.103 78.24 438.343 78.24ZM448.185 78V77.02C447.545 77.8333 446.665 78.24 445.545 78.24C443.092 78.24 441.865 76.7867 441.865 73.88V67.78H443.945V73.88C443.945 74.6933 444.132 75.3 444.505 75.7C444.878 76.0867 445.372 76.28 445.985 76.28C447.452 76.28 448.185 75.4933 448.185 73.92V67.78H450.265V78H448.185ZM457.813 78.24C456.773 78.24 455.953 77.8667 455.353 77.12V81.06L453.273 82.02V67.78H455.353V68.6C455.993 67.8933 456.813 67.54 457.813 67.54C459.107 67.54 460.127 68.02 460.873 68.98C461.633 69.9267 462.013 71.2333 462.013 72.9C462.013 74.5533 461.627 75.86 460.853 76.82C460.093 77.7667 459.08 78.24 457.813 78.24ZM457.513 76.28C458.3 76.28 458.9 75.9933 459.313 75.42C459.727 74.8333 459.933 73.9933 459.933 72.9C459.933 71.8867 459.72 71.0667 459.293 70.44C458.867 69.8133 458.273 69.5 457.513 69.5C456.553 69.5 455.833 69.8867 455.353 70.66V75.1C455.94 75.8867 456.66 76.28 457.513 76.28Z" fill="#565656"/>
<path d="M636.246 67.2V78H634.374V67.2H630.81V65.4H639.81V67.2H636.246ZM641.967 78V65.868L643.839 65.004V69.684C644.415 68.952 645.207 68.586 646.215 68.586C648.423 68.586 649.527 69.894 649.527 72.51V78H647.655V72.51C647.655 71.778 647.487 71.238 647.151 70.89C646.815 70.53 646.371 70.35 645.819 70.35C644.499 70.35 643.839 71.058 643.839 72.474V78H641.967ZM655.871 78.216C654.587 78.216 653.567 77.79 652.811 76.938C652.067 76.074 651.695 74.892 651.695 73.392C651.695 71.892 652.073 70.716 652.829 69.864C653.585 69.012 654.599 68.586 655.871 68.586C657.023 68.586 657.971 68.952 658.715 69.684C659.459 70.416 659.831 71.484 659.831 72.888C659.831 73.404 659.807 73.806 659.759 74.094H653.567C653.579 74.826 653.813 75.42 654.269 75.876C654.737 76.332 655.277 76.56 655.889 76.56C656.681 76.56 657.317 76.248 657.797 75.624L659.021 76.884C658.277 77.772 657.227 78.216 655.871 78.216ZM653.567 72.582H657.959C657.947 71.79 657.737 71.202 657.329 70.818C656.921 70.434 656.435 70.242 655.871 70.242C655.235 70.242 654.701 70.434 654.269 70.818C653.849 71.19 653.615 71.778 653.567 72.582ZM672.789 78V72.492C672.789 71.064 672.225 70.35 671.097 70.35C670.569 70.35 670.131 70.548 669.783 70.944C669.435 71.328 669.261 71.874 669.261 72.582V78H667.389V72.492C667.389 71.064 666.825 70.35 665.697 70.35C665.169 70.35 664.731 70.548 664.383 70.944C664.035 71.328 663.861 71.874 663.861 72.582V78H661.989V68.802H663.861V69.648C664.353 68.94 665.127 68.586 666.183 68.586C667.323 68.586 668.139 69.024 668.631 69.9C669.195 69.024 670.101 68.586 671.349 68.586C672.345 68.586 673.143 68.874 673.743 69.45C674.355 70.026 674.661 70.896 674.661 72.06V78H672.789ZM680.99 78.216C679.706 78.216 678.686 77.79 677.93 76.938C677.186 76.074 676.814 74.892 676.814 73.392C676.814 71.892 677.192 70.716 677.948 69.864C678.704 69.012 679.718 68.586 680.99 68.586C682.142 68.586 683.09 68.952 683.834 69.684C684.578 70.416 684.95 71.484 684.95 72.888C684.95 73.404 684.926 73.806 684.878 74.094H678.686C678.698 74.826 678.932 75.42 679.388 75.876C679.856 76.332 680.396 76.56 681.008 76.56C681.8 76.56 682.436 76.248 682.916 75.624L684.14 76.884C683.396 77.772 682.346 78.216 680.99 78.216ZM678.686 72.582H683.078C683.066 71.79 682.856 71.202 682.448 70.818C682.04 70.434 681.554 70.242 680.99 70.242C680.354 70.242 679.82 70.434 679.388 70.818C678.968 71.19 678.734 71.778 678.686 72.582ZM695.572 78.216C694.456 78.216 693.49 77.946 692.674 77.406C691.858 76.854 691.294 76.104 690.982 75.156L692.746 74.508C693.01 75.096 693.394 75.564 693.898 75.912C694.402 76.248 694.984 76.416 695.644 76.416C696.34 76.416 696.892 76.248 697.3 75.912C697.72 75.576 697.93 75.096 697.93 74.472C697.93 74.208 697.87 73.968 697.75 73.752C697.642 73.524 697.516 73.338 697.372 73.194C697.228 73.05 697.006 72.906 696.706 72.762C696.406 72.606 696.154 72.492 695.95 72.42C695.758 72.336 695.47 72.228 695.086 72.096C694.606 71.928 694.246 71.796 694.006 71.7C693.766 71.604 693.448 71.448 693.052 71.232C692.668 71.004 692.374 70.782 692.17 70.566C691.978 70.338 691.804 70.044 691.648 69.684C691.492 69.324 691.414 68.922 691.414 68.478C691.414 67.554 691.774 66.774 692.494 66.138C693.214 65.502 694.192 65.184 695.428 65.184C696.46 65.184 697.306 65.412 697.966 65.868C698.638 66.324 699.088 66.93 699.316 67.686L697.588 68.262C697.42 67.878 697.138 67.572 696.742 67.344C696.358 67.104 695.872 66.984 695.284 66.984C694.684 66.984 694.21 67.116 693.862 67.38C693.526 67.644 693.358 68.016 693.358 68.496C693.358 68.82 693.49 69.108 693.754 69.36C694.018 69.612 694.294 69.798 694.582 69.918C694.87 70.038 695.308 70.2 695.896 70.404C696.256 70.536 696.52 70.638 696.688 70.71C696.868 70.77 697.126 70.878 697.462 71.034C697.798 71.19 698.056 71.334 698.236 71.466C698.416 71.586 698.626 71.754 698.866 71.97C699.106 72.186 699.286 72.408 699.406 72.636C699.538 72.852 699.646 73.122 699.73 73.446C699.826 73.758 699.874 74.094 699.874 74.454C699.874 75.63 699.472 76.554 698.668 77.226C697.864 77.886 696.832 78.216 695.572 78.216ZM706.021 78.216C704.737 78.216 703.717 77.79 702.961 76.938C702.217 76.074 701.845 74.892 701.845 73.392C701.845 71.892 702.223 70.716 702.979 69.864C703.735 69.012 704.749 68.586 706.021 68.586C707.173 68.586 708.121 68.952 708.865 69.684C709.609 70.416 709.981 71.484 709.981 72.888C709.981 73.404 709.957 73.806 709.909 74.094H703.717C703.729 74.826 703.963 75.42 704.419 75.876C704.887 76.332 705.427 76.56 706.039 76.56C706.831 76.56 707.467 76.248 707.947 75.624L709.171 76.884C708.427 77.772 707.377 78.216 706.021 78.216ZM703.717 72.582H708.109C708.097 71.79 707.887 71.202 707.479 70.818C707.071 70.434 706.585 70.242 706.021 70.242C705.385 70.242 704.851 70.434 704.419 70.818C703.999 71.19 703.765 71.778 703.717 72.582ZM712.229 78V65.886L714.101 65.004V78H712.229ZM720.611 78.216C719.327 78.216 718.307 77.79 717.551 76.938C716.807 76.074 716.435 74.892 716.435 73.392C716.435 71.892 716.813 70.716 717.569 69.864C718.325 69.012 719.339 68.586 720.611 68.586C721.763 68.586 722.711 68.952 723.455 69.684C724.199 70.416 724.571 71.484 724.571 72.888C724.571 73.404 724.547 73.806 724.499 74.094H718.307C718.319 74.826 718.553 75.42 719.009 75.876C719.477 76.332 720.017 76.56 720.629 76.56C721.421 76.56 722.057 76.248 722.537 75.624L723.761 76.884C723.017 77.772 721.967 78.216 720.611 78.216ZM718.307 72.582H722.699C722.687 71.79 722.477 71.202 722.069 70.818C721.661 70.434 721.175 70.242 720.611 70.242C719.975 70.242 719.441 70.434 719.009 70.818C718.589 71.19 718.355 71.778 718.307 72.582ZM730.293 78.216C729.057 78.216 728.079 77.79 727.359 76.938C726.639 76.086 726.279 74.91 726.279 73.41C726.279 71.91 726.639 70.734 727.359 69.882C728.079 69.018 729.057 68.586 730.293 68.586C732.081 68.586 733.239 69.378 733.767 70.962L731.985 71.574C731.685 70.782 731.145 70.386 730.365 70.386C729.669 70.386 729.129 70.656 728.745 71.196C728.373 71.724 728.187 72.462 728.187 73.41C728.187 74.346 728.373 75.084 728.745 75.624C729.117 76.152 729.633 76.416 730.293 76.416C731.181 76.416 731.757 75.966 732.021 75.066L733.803 75.624C733.311 77.352 732.141 78.216 730.293 78.216ZM738.534 78.216C737.166 78.216 736.482 77.454 736.482 75.93V70.422H735.06V68.802H736.482V65.904L738.354 65.004V68.802H740.532V70.422H738.354V75.444C738.354 76.14 738.654 76.488 739.254 76.488C739.698 76.488 740.154 76.344 740.622 76.056L740.388 77.802C739.836 78.078 739.218 78.216 738.534 78.216ZM744.436 67.038C744.22 67.254 743.956 67.362 743.644 67.362C743.332 67.362 743.062 67.254 742.834 67.038C742.618 66.81 742.51 66.54 742.51 66.228C742.51 65.916 742.618 65.652 742.834 65.436C743.062 65.208 743.332 65.094 743.644 65.094C743.956 65.094 744.22 65.208 744.436 65.436C744.664 65.652 744.778 65.916 744.778 66.228C744.778 66.54 744.664 66.81 744.436 67.038ZM742.708 78V68.802H744.58V78H742.708ZM754.117 76.938C753.361 77.79 752.335 78.216 751.039 78.216C749.743 78.216 748.717 77.79 747.961 76.938C747.217 76.086 746.845 74.91 746.845 73.41C746.845 71.91 747.217 70.734 747.961 69.882C748.717 69.018 749.743 68.586 751.039 68.586C752.335 68.586 753.361 69.018 754.117 69.882C754.873 70.734 755.251 71.91 755.251 73.41C755.251 74.91 754.873 76.086 754.117 76.938ZM751.039 76.452C751.759 76.452 752.329 76.182 752.749 75.642C753.169 75.102 753.379 74.358 753.379 73.41C753.379 72.462 753.169 71.718 752.749 71.178C752.329 70.626 751.759 70.35 751.039 70.35C750.331 70.35 749.767 70.626 749.347 71.178C748.927 71.718 748.717 72.462 748.717 73.41C748.717 74.346 748.927 75.09 749.347 75.642C749.767 76.182 750.331 76.452 751.039 76.452ZM763.196 78V72.51C763.196 71.778 763.028 71.238 762.692 70.89C762.356 70.53 761.912 70.35 761.36 70.35C760.04 70.35 759.38 71.058 759.38 72.474V78H757.508V68.802H759.38V69.684C759.956 68.952 760.748 68.586 761.756 68.586C763.964 68.586 765.068 69.894 765.068 72.51V78H763.196Z" fill="#565656"/>
<path d="M950.264 78.216C948.836 78.216 947.69 77.826 946.826 77.046C945.962 76.254 945.53 74.982 945.53 73.23V65.4H947.402V73.23C947.402 74.406 947.654 75.234 948.158 75.714C948.662 76.182 949.364 76.416 950.264 76.416C951.164 76.416 951.866 76.182 952.37 75.714C952.886 75.234 953.144 74.406 953.144 73.23V65.4H955.016V73.23C955.016 74.982 954.59 76.254 953.738 77.046C952.886 77.826 951.728 78.216 950.264 78.216ZM961.987 78.216C961.051 78.216 960.313 77.88 959.773 77.208V80.754L957.901 81.618V68.802H959.773V69.54C960.349 68.904 961.087 68.586 961.987 68.586C963.151 68.586 964.069 69.018 964.741 69.882C965.425 70.734 965.767 71.91 965.767 73.41C965.767 74.898 965.419 76.074 964.723 76.938C964.039 77.79 963.127 78.216 961.987 78.216ZM961.717 76.452C962.425 76.452 962.965 76.194 963.337 75.678C963.709 75.15 963.895 74.394 963.895 73.41C963.895 72.498 963.703 71.76 963.319 71.196C962.935 70.632 962.401 70.35 961.717 70.35C960.853 70.35 960.205 70.698 959.773 71.394V75.39C960.301 76.098 960.949 76.452 961.717 76.452ZM968.098 78V65.886L969.97 65.004V78H968.098ZM979.576 76.938C978.82 77.79 977.794 78.216 976.498 78.216C975.202 78.216 974.176 77.79 973.42 76.938C972.676 76.086 972.304 74.91 972.304 73.41C972.304 71.91 972.676 70.734 973.42 69.882C974.176 69.018 975.202 68.586 976.498 68.586C977.794 68.586 978.82 69.018 979.576 69.882C980.332 70.734 980.71 71.91 980.71 73.41C980.71 74.91 980.332 76.086 979.576 76.938ZM976.498 76.452C977.218 76.452 977.788 76.182 978.208 75.642C978.628 75.102 978.838 74.358 978.838 73.41C978.838 72.462 978.628 71.718 978.208 71.178C977.788 70.626 977.218 70.35 976.498 70.35C975.79 70.35 975.226 70.626 974.806 71.178C974.386 71.718 974.176 72.462 974.176 73.41C974.176 74.346 974.386 75.09 974.806 75.642C975.226 76.182 975.79 76.452 976.498 76.452ZM988.223 78V77.208C987.575 77.88 986.735 78.216 985.703 78.216C984.731 78.216 983.939 77.952 983.327 77.424C982.727 76.884 982.427 76.122 982.427 75.138C982.427 74.142 982.769 73.386 983.453 72.87C984.137 72.354 984.971 72.096 985.955 72.096C986.855 72.096 987.611 72.276 988.223 72.636V72.132C988.223 71.448 988.067 70.962 987.755 70.674C987.443 70.386 986.945 70.242 986.261 70.242C985.253 70.242 984.377 70.518 983.633 71.07L983.075 69.54C983.999 68.904 985.145 68.586 986.513 68.586C986.969 68.586 987.377 68.628 987.737 68.712C988.097 68.784 988.463 68.934 988.835 69.162C989.207 69.378 989.495 69.732 989.699 70.224C989.915 70.716 990.023 71.322 990.023 72.042V78H988.223ZM986.045 76.56C986.909 76.56 987.635 76.23 988.223 75.57V74.166C987.659 73.866 987.005 73.716 986.261 73.716C985.661 73.716 985.169 73.836 984.785 74.076C984.413 74.304 984.227 74.658 984.227 75.138C984.227 75.582 984.383 75.93 984.695 76.182C985.007 76.434 985.457 76.56 986.045 76.56ZM995.913 78.216C994.749 78.216 993.819 77.79 993.123 76.938C992.439 76.074 992.097 74.892 992.097 73.392C992.097 71.904 992.445 70.734 993.141 69.882C993.849 69.018 994.773 68.586 995.913 68.586C996.813 68.586 997.539 68.874 998.091 69.45V65.868L999.963 65.004V78H998.091V77.352C997.575 77.928 996.849 78.216 995.913 78.216ZM996.183 76.452C997.023 76.452 997.659 76.104 998.091 75.408V71.358C997.923 71.082 997.671 70.848 997.335 70.656C997.011 70.452 996.627 70.35 996.183 70.35C995.475 70.35 994.929 70.614 994.545 71.142C994.161 71.67 993.969 72.42 993.969 73.392C993.969 74.304 994.167 75.042 994.563 75.606C994.959 76.17 995.499 76.452 996.183 76.452ZM1009.95 78L1005.63 65.4H1007.64L1010.51 74.184C1010.69 74.736 1010.82 75.216 1010.9 75.624C1010.99 75.216 1011.12 74.736 1011.3 74.184L1014.12 65.4H1016.12L1011.82 78H1009.95ZM1023.66 76.938C1022.91 77.79 1021.88 78.216 1020.58 78.216C1019.29 78.216 1018.26 77.79 1017.51 76.938C1016.76 76.086 1016.39 74.91 1016.39 73.41C1016.39 71.91 1016.76 70.734 1017.51 69.882C1018.26 69.018 1019.29 68.586 1020.58 68.586C1021.88 68.586 1022.91 69.018 1023.66 69.882C1024.42 70.734 1024.8 71.91 1024.8 73.41C1024.8 74.91 1024.42 76.086 1023.66 76.938ZM1020.58 76.452C1021.3 76.452 1021.87 76.182 1022.29 75.642C1022.71 75.102 1022.92 74.358 1022.92 73.41C1022.92 72.462 1022.71 71.718 1022.29 71.178C1021.87 70.626 1021.3 70.35 1020.58 70.35C1019.88 70.35 1019.31 70.626 1018.89 71.178C1018.47 71.718 1018.26 72.462 1018.26 73.41C1018.26 74.346 1018.47 75.09 1018.89 75.642C1019.31 76.182 1019.88 76.452 1020.58 76.452ZM1027.14 78V65.886L1029.02 65.004V78H1027.14ZM1037.4 78V77.118C1036.82 77.85 1036.03 78.216 1035.02 78.216C1032.81 78.216 1031.71 76.908 1031.71 74.292V68.802H1033.58V74.292C1033.58 75.024 1033.75 75.57 1034.09 75.93C1034.42 76.278 1034.87 76.452 1035.42 76.452C1036.74 76.452 1037.4 75.744 1037.4 74.328V68.802H1039.27V78H1037.4ZM1047.66 78V72.51C1047.66 71.778 1047.5 71.238 1047.16 70.89C1046.82 70.53 1046.38 70.35 1045.83 70.35C1044.51 70.35 1043.85 71.058 1043.85 72.474V78H1041.98V68.802H1043.85V69.684C1044.42 68.952 1045.22 68.586 1046.22 68.586C1048.43 68.586 1049.54 69.894 1049.54 72.51V78H1047.66ZM1054.82 78.216C1053.45 78.216 1052.77 77.454 1052.77 75.93V70.422H1051.34V68.802H1052.77V65.904L1054.64 65.004V68.802H1056.82V70.422H1054.64V75.444C1054.64 76.14 1054.94 76.488 1055.54 76.488C1055.98 76.488 1056.44 76.344 1056.91 76.056L1056.67 77.802C1056.12 78.078 1055.5 78.216 1054.82 78.216ZM1062.53 78.216C1061.24 78.216 1060.22 77.79 1059.47 76.938C1058.72 76.074 1058.35 74.892 1058.35 73.392C1058.35 71.892 1058.73 70.716 1059.48 69.864C1060.24 69.012 1061.25 68.586 1062.53 68.586C1063.68 68.586 1064.63 68.952 1065.37 69.684C1066.11 70.416 1066.49 71.484 1066.49 72.888C1066.49 73.404 1066.46 73.806 1066.41 74.094H1060.22C1060.23 74.826 1060.47 75.42 1060.92 75.876C1061.39 76.332 1061.93 76.56 1062.54 76.56C1063.34 76.56 1063.97 76.248 1064.45 75.624L1065.68 76.884C1064.93 77.772 1063.88 78.216 1062.53 78.216ZM1060.22 72.582H1064.61C1064.6 71.79 1064.39 71.202 1063.98 70.818C1063.58 70.434 1063.09 70.242 1062.53 70.242C1061.89 70.242 1061.36 70.434 1060.92 70.818C1060.5 71.19 1060.27 71.778 1060.22 72.582ZM1072.37 78.216C1071.08 78.216 1070.06 77.79 1069.31 76.938C1068.56 76.074 1068.19 74.892 1068.19 73.392C1068.19 71.892 1068.57 70.716 1069.33 69.864C1070.08 69.012 1071.1 68.586 1072.37 68.586C1073.52 68.586 1074.47 68.952 1075.21 69.684C1075.96 70.416 1076.33 71.484 1076.33 72.888C1076.33 73.404 1076.3 73.806 1076.26 74.094H1070.06C1070.08 74.826 1070.31 75.42 1070.77 75.876C1071.23 76.332 1071.77 76.56 1072.39 76.56C1073.18 76.56 1073.81 76.248 1074.29 75.624L1075.52 76.884C1074.77 77.772 1073.72 78.216 1072.37 78.216ZM1070.06 72.582H1074.46C1074.44 71.79 1074.23 71.202 1073.83 70.818C1073.42 70.434 1072.93 70.242 1072.37 70.242C1071.73 70.242 1071.2 70.434 1070.77 70.818C1070.35 71.19 1070.11 71.778 1070.06 72.582ZM1078.49 78V68.802H1080.36V69.918C1080.77 69.03 1081.45 68.586 1082.41 68.586C1083.01 68.586 1083.53 68.772 1083.96 69.144L1083.69 70.872C1083.24 70.572 1082.76 70.422 1082.23 70.422C1081.73 70.422 1081.29 70.614 1080.92 70.998C1080.54 71.37 1080.36 71.982 1080.36 72.834V78H1078.49ZM1088.49 78.216C1087.77 78.216 1087.09 78.084 1086.45 77.82C1085.82 77.544 1085.34 77.178 1085.01 76.722L1086.34 75.588C1087 76.212 1087.71 76.524 1088.45 76.524C1089.53 76.524 1090.07 76.194 1090.07 75.534C1090.07 75.306 1089.97 75.096 1089.76 74.904C1089.56 74.712 1089.36 74.574 1089.15 74.49C1088.95 74.394 1088.62 74.256 1088.16 74.076C1087.15 73.74 1086.41 73.344 1085.93 72.888C1085.46 72.432 1085.23 71.844 1085.23 71.124C1085.23 70.332 1085.53 69.714 1086.13 69.27C1086.74 68.814 1087.51 68.586 1088.43 68.586C1089.81 68.586 1090.89 69.048 1091.65 69.972L1090.3 71.052C1089.81 70.536 1089.19 70.278 1088.43 70.278C1088.04 70.278 1087.72 70.356 1087.48 70.512C1087.25 70.656 1087.14 70.86 1087.14 71.124C1087.14 71.4 1087.27 71.628 1087.55 71.808C1087.84 71.976 1088.29 72.18 1088.92 72.42C1089.96 72.768 1090.72 73.176 1091.2 73.644C1091.7 74.112 1091.94 74.742 1091.94 75.534C1091.94 76.398 1091.63 77.064 1091.01 77.532C1090.39 77.988 1089.55 78.216 1088.49 78.216Z" fill="#C4C4C4"/>
<line x1="96.5" y1="18.5" x2="336.5" y2="18.5" stroke="#E5E5E5" stroke-width="3" stroke-linecap="round"/>
<line x1="96.5" y1="18.5" x2="336.5" y2="18.5" stroke="#565656" stroke-width="3" stroke-linecap="round"/>
<line x1="417.5" y1="18.5" x2="657.5" y2="18.5" stroke="#E5E5E5" stroke-width="3" stroke-linecap="round"/>
<line x1="417.5" y1="18.5" x2="657.5" y2="18.5" stroke="#565656" stroke-width="3" stroke-linecap="round"/>
<circle cx="56" cy="20" r="20" fill="#565656"/>
<path d="M49 21.3667L53.9091 27L64 14" stroke="white" stroke-width="3" stroke-linecap="round" stroke-linejoin="round"/>
<circle cx="377" cy="20" r="20" fill="#565656"/>
<path d="M370 21.3667L374.909 27L385 14" stroke="white" stroke-width="3" stroke-linecap="round" stroke-linejoin="round"/>
<line x1="738.5" y1="18.5" x2="978.5" y2="18.5" stroke="#E5E5E5" stroke-width="3" stroke-linecap="round"/>
<line x1="738.5" y1="18.5" x2="857" y2="18.5" stroke="#565656" stroke-width="3" stroke-linecap="round"/>
</svg>
